<?xml version="1.0" encoding="UTF-8"?>
<svg version="1.1" xmlns="http://www.w3.org/2000/svg" width="512" height="512">
<path d="M0 0 C1.89111815 -0.00461567 3.78223271 -0.01097305 5.67333984 -0.01890898 C10.84088991 -0.03553379 16.00814269 -0.02738714 21.17569351 -0.0149641 C26.75997127 -0.00588783 32.34419907 -0.01989611 37.9284668 -0.03088379 C48.85656545 -0.04864609 59.78455405 -0.0448392 70.71265697 -0.03323323 C79.59620757 -0.02419018 88.47972737 -0.02297868 97.36328125 -0.02732849 C98.62888193 -0.02794142 99.89448261 -0.02855436 101.19843483 -0.02918586 C103.76968639 -0.0304648 106.34093794 -0.03176165 108.91218948 -0.03307623 C132.3216199 -0.04415054 155.73097984 -0.03267694 179.1403966 -0.01170584 C200.49076524 0.00727528 221.84103844 0.00557671 243.19140625 -0.0135498 C267.20268273 -0.0349884 291.2138996 -0.04337675 315.22518921 -0.03110075 C317.78684488 -0.02982659 320.34850056 -0.0285691 322.91015625 -0.02732849 C324.80060386 -0.02640284 324.80060386 -0.02640284 326.72924232 -0.02545848 C335.59945586 -0.02200854 344.46963547 -0.02782628 353.33984375 -0.0372467 C364.15348455 -0.04847895 374.96700924 -0.04540076 385.78063679 -0.02412373 C391.29517823 -0.01362993 396.80952626 -0.00946312 402.32406616 -0.02272034 C407.37725096 -0.03468448 412.43006401 -0.02801541 417.48321533 -0.00681013 C419.30605708 -0.0023611 421.12893056 -0.00457187 422.95175171 -0.01431328 C435.62945741 -0.07684008 448.8351132 0.05876782 458.484375 9.50402832 C463.3252831 15.37491686 466.25469702 21.41357506 466.27652645 29.04807854 C466.28221769 30.20745552 466.28790893 31.3668325 466.29377264 32.56134212 C466.29495251 33.84098783 466.29613239 35.12063354 466.29734802 36.4390564 C466.3020783 37.80751729 466.30722912 39.17597679 466.31276566 40.54443467 C466.32668333 44.31332287 466.33425857 48.08220141 466.34073865 51.85110879 C466.34710664 55.08158181 466.35717705 58.31203892 466.36729931 61.54250203 C466.40062957 72.18469683 466.42214331 82.82690129 466.44049916 93.46913117 C466.44529335 96.23905777 466.45027675 99.00898398 466.45530438 101.77891016 C466.48626915 118.97177965 466.51296013 136.16465248 466.52972317 153.35754204 C466.53367279 157.34012737 466.53767577 161.32271264 466.54174805 165.30529785 C466.54275641 166.2951739 466.54376477 167.28504995 466.54480369 168.30492224 C466.56182188 184.35134872 466.60294434 200.39762129 466.65377104 216.44397257 C466.70549767 232.90950194 466.73465866 249.37495203 466.74192005 265.84056199 C466.74658799 275.08913007 466.76139892 284.33744591 466.80166435 293.58593369 C466.83590327 301.45981096 466.84992861 309.33339048 466.83724021 317.20733796 C466.83139921 321.22634855 466.83537726 325.24472893 466.86540985 329.26364517 C466.89267053 332.94154689 466.89235261 336.61836765 466.8698994 340.29629232 C466.86512786 342.25992894 466.89000861 344.22356808 466.9158687 346.18704021 C466.82680712 354.443072 466.82680712 354.443072 464.89292347 357.427212 C461.91513857 360.12303494 460.15872513 360.50793457 456.13671875 360.50793457 C456.46671875 368.42793457 456.79671875 376.34793457 457.13671875 384.50793457 C460.60171875 385.99293457 460.60171875 385.99293457 464.13671875 387.50793457 C466.96258742 391.74673757 466.91328142 395.53159417 466.13671875 400.50793457 C463.94921875 403.63293457 463.94921875 403.63293457 461.13671875 405.50793457 C459.48671875 405.50793457 457.83671875 405.50793457 456.13671875 405.50793457 C456.13671875 413.75793457 456.13671875 422.00793457 456.13671875 430.50793457 C457.78671875 430.50793457 459.43671875 430.50793457 461.13671875 430.50793457 C464.73066872 433.1314959 465.98213343 434.63938635 466.76782227 439.05383301 C466.79388309 440.40807466 466.79165899 441.7630674 466.765625 443.11730957 C466.76803696 443.8435553 466.77044891 444.56980103 466.77293396 445.3180542 C466.77195747 446.85112985 466.75861055 448.38424162 466.73364258 449.91711426 C466.69951629 452.23770183 466.7129431 454.55443529 466.73242188 456.87512207 C466.72218349 467.505576 465.30798954 475.89740507 457.8984375 483.94152832 C450.26381508 490.72974027 441.02310437 492.823021 431.03589344 492.76520348 C430.25728229 492.76870955 429.47867114 492.77221563 428.67646572 492.77582794 C426.07580834 492.78510805 423.47537657 492.78022742 420.87471008 492.77536011 C418.98791023 492.77909808 417.10111193 492.78370019 415.21431607 492.78909075 C410.03555025 492.80131806 404.85684905 492.80106059 399.67807209 492.798702 C394.09030801 492.79829377 388.50256462 492.80933365 382.91481018 492.81881714 C371.96934736 492.83542681 361.02390608 492.84092668 350.0784317 492.84204189 C341.18046551 492.84299241 332.28250641 492.84710291 323.38454247 492.85344315 C302.25831929 492.86819008 281.13210046 492.88049288 260.00587177 492.87944603 C258.99278073 492.87939929 258.99278073 492.87939929 257.95922319 492.87935161 C254.53619375 492.8791854 251.1131643 492.87898732 247.69013486 492.8787822 C247.01033278 492.87874231 246.33053069 492.87870242 245.63012855 492.87866132 C244.25540304 492.87858044 242.88067753 492.87849685 241.50595201 492.87841053 C220.12283729 492.87718533 198.73978602 492.89219358 177.35668945 492.91955566 C153.32165217 492.95029868 129.28666256 492.96746148 105.25159997 492.96562922 C92.52984401 492.96496543 79.80815961 492.97045313 67.08642006 492.99198532 C56.2543705 493.0102017 45.42242494 493.01454065 34.5903667 493.00096647 C29.06572583 492.99443912 23.54128446 492.99431144 18.0166626 493.01167297 C12.95403923 493.02741873 7.8917733 493.02452449 2.82915857 493.00710471 C1.00279734 493.00403815 -0.82359067 493.00765416 -2.64992031 493.01882486 C-14.38477458 493.08581724 -26.55704974 493.03227527 -36.30078125 485.50793457 C-44.66212868 477.10980581 -46.62554159 467.69695435 -46.66574168 456.34169483 C-46.65277356 454.63237399 -46.6392338 452.92305741 -46.62518311 451.21374512 C-46.63210557 449.37226854 -46.64164095 447.53080027 -46.65354657 445.68934917 C-46.6784991 440.65429885 -46.66625757 435.61993444 -46.64762926 430.58488226 C-46.63402084 425.14509372 -46.65502425 419.70542087 -46.67150879 414.26565552 C-46.69815878 403.6191181 -46.69243912 392.97283479 -46.67503294 382.32628751 C-46.6614709 373.67200212 -46.65965002 365.01778784 -46.66617584 356.36349487 C-46.66709524 355.13077431 -46.66801464 353.89805375 -46.6689619 352.62797803 C-46.67088029 350.12356319 -46.67282557 347.61914837 -46.67479745 345.11473358 C-46.69141072 322.31137925 -46.67419556 299.50815441 -46.64274186 276.70482211 C-46.61426991 255.90506933 -46.61681775 235.10553699 -46.64550781 214.30578613 C-46.67766238 190.91637335 -46.69025012 167.52708238 -46.67183423 144.13765049 C-46.66992298 141.64255843 -46.66803675 139.14746636 -46.66617584 136.65237427 C-46.66525019 135.42480949 -46.66432454 134.1972447 -46.66337083 132.93248099 C-46.65819491 124.29072174 -46.66692466 115.64904082 -46.68105316 107.0072937 C-46.69789792 96.47278481 -46.69329214 85.9385441 -46.6613687 75.40406585 C-46.64562277 70.0313388 -46.63938601 64.65905853 -46.65926361 59.28633499 C-46.67720011 54.36374875 -46.66722402 49.44202156 -46.6353983 44.51951277 C-46.62872041 42.74309688 -46.63205112 40.96660775 -46.64665303 39.19023931 C-46.73409098 27.66509171 -45.65306255 18.75784957 -38.16093516 9.37627125 C-28.09318355 -0.73576812 -13.22757938 -0.07069001 0 0 Z " fill="#000000" transform="translate(45.86328125,9.4920654296875)"/>
<path d="M0 0 C33.99 0 67.98 0 103 0 C103.03738281 15.39011719 103.07476562 30.78023437 103.11328125 46.63671875 C103.14354474 56.36654559 103.17455924 66.09636035 103.20898438 75.82617188 C103.2635264 91.28148319 103.31493665 106.73676092 103.34643555 122.19213867 C103.36938762 133.44697989 103.40275439 144.70173341 103.44870156 155.95650512 C103.47267138 161.9174908 103.49137553 167.87838943 103.49761391 173.83942223 C103.50364772 179.44790079 103.52358594 185.05615651 103.55427551 190.66455269 C103.56308308 192.72489756 103.56677272 194.78527152 103.56500816 196.84563446 C103.56336124 199.65550214 103.58000511 202.46468581 103.60127258 205.27445984 C103.59642501 206.09255857 103.59157743 206.91065729 103.58658296 207.75354689 C103.6439341 212.33483713 103.96057108 215.48073291 107 219 C108.98 219.99 110.96 220.98 113 222 C113.495 233.88 113.495 233.88 114 246 C116.31 246.99 118.62 247.98 121 249 C123.82586867 253.238803 123.77656267 257.0236596 123 262 C120.8125 265.125 120.8125 265.125 118 267 C116.35 267 114.7 267 113 267 C113 275.25 113 283.5 113 292 C110.69 292.99 108.38 293.98 106 295 C103.68786999 298.46819501 103.73826125 299.89352137 103.69140625 303.98828125 C103.66626953 305.16970703 103.64113281 306.35113281 103.61523438 307.56835938 C103.58024388 310.05268451 103.54895821 312.53706475 103.52148438 315.02148438 C103.49505859 316.20677734 103.46863281 317.39207031 103.44140625 318.61328125 C103.42795166 319.69391846 103.41449707 320.77455566 103.40063477 321.88793945 C102.93253143 325.524084 101.95562326 327.90509799 100 331 C70.17979805 345.91010098 33.33999933 333 0 333 C0 223.11 0 113.22 0 0 Z " fill="#CBF3FA" transform="translate(389,148)"/>
<path d="M0 0 C33.99 0 67.98 0 103 0 C103 109.89 103 219.78 103 333 C69.01 333 35.02 333 0 333 C0 223.11 0 113.22 0 0 Z " fill="#CAF3FA" transform="translate(266,148)"/>
<path d="M0 0 C33.99 0 67.98 0 103 0 C103 109.89 103 219.78 103 333 C69.01 333 35.02 333 0 333 C0 223.11 0 113.22 0 0 Z " fill="#CAF3FA" transform="translate(143,148)"/>
<path d="M0 0 C33.99 0 67.98 0 103 0 C103 109.89 103 219.78 103 333 C70.99 333 38.98 333 6 333 C0 327 0 327 -0.1241985 324.77906793 C-0.12381878 323.78609927 -0.12343906 322.79313061 -0.12304783 321.77007198 C-0.12503888 320.62901058 -0.12702993 319.48794918 -0.12908131 318.31231016 C-0.12616847 317.04288291 -0.12325563 315.77345566 -0.12025452 314.46556091 C-0.1206901 313.11588793 -0.12156477 311.76621503 -0.12284368 310.41654259 C-0.12509117 306.6904766 -0.12106391 302.96443909 -0.11606562 299.23837674 C-0.11176493 295.22676855 -0.11320727 291.21516209 -0.1139679 287.20355225 C-0.11449337 280.24743199 -0.11134409 273.29132108 -0.10573006 266.33520317 C-0.09761827 256.27770624 -0.09500017 246.22021386 -0.09374207 236.16271401 C-0.09155104 219.84683607 -0.08488958 203.53096312 -0.07543945 187.21508789 C-0.06626664 171.36157252 -0.05918517 155.5080585 -0.05493164 139.65454102 C-0.05466892 138.67805619 -0.05440619 137.70157135 -0.05413551 136.69549607 C-0.05283051 131.79697542 -0.0515668 126.89845475 -0.05032361 121.99993408 C-0.03994941 81.33328496 -0.02151026 40.66664505 0 0 Z " fill="#CBF3FA" transform="translate(20,148)"/>
<path d="M0 0 C33.99 0 67.98 0 103 0 C103 32.01 103 64.02 103 97 C69.01 97 35.02 97 0 97 C0 64.99 0 32.98 0 0 Z " fill="#65DFF6" transform="translate(266,31)"/>
<path d="M0 0 C33.99 0 67.98 0 103 0 C103 32.01 103 64.02 103 97 C69.01 97 35.02 97 0 97 C0 64.99 0 32.98 0 0 Z " fill="#FECC68" transform="translate(143,31)"/>
<path d="M0 0 C1.35769957 0.00539716 1.35769957 0.00539716 2.74282742 0.01090336 C3.70442996 0.01078282 4.66603251 0.01066229 5.65677452 0.0105381 C8.78500994 0.01128748 11.91318657 0.01891686 15.0414114 0.0267725 C16.96650063 0.02824184 18.89159025 0.0292626 20.81667995 0.02982426 C27.97362776 0.03507805 35.13056702 0.04903912 42.28750515 0.06192875 C58.27188015 0.08255375 74.25625515 0.10317875 90.72500515 0.12442875 C90.72500515 32.13442875 90.72500515 64.14442875 90.72500515 97.12442875 C56.73500515 97.12442875 22.74500515 97.12442875 -12.27499485 97.12442875 C-12.37811985 82.21255375 -12.48124485 67.30067875 -12.58749485 51.93692875 C-12.63301487 47.23160892 -12.67853489 42.5262891 -12.7254343 37.67838383 C-12.74801731 31.92459965 -12.74801731 31.92459965 -12.75221348 29.22945499 C-12.75988246 27.35044783 -12.77744982 25.471465 -12.80287266 23.59261417 C-12.8394953 20.74316634 -12.84452452 17.89521939 -12.8426218 15.04557133 C-12.86960762 13.79377567 -12.86960762 13.79377567 -12.8971386 12.51669121 C-12.85814482 8.15180291 -12.68859612 6.6253495 -9.80201817 3.12935734 C-8.96810047 2.4677309 -8.13418278 1.80610447 -7.27499485 1.12442875 C-5.36494745 -0.78561865 -2.54097269 0.00429027 0 0 Z " fill="#DB71A8" transform="translate(32.27499485015869,30.875571250915527)"/>
<path d="M0 0 C23.6053125 -0.0928125 23.6053125 -0.0928125 47.6875 -0.1875 C55.13703247 -0.22846802 55.13703247 -0.22846802 62.73706055 -0.27026367 C68.80822754 -0.28381348 68.80822754 -0.28381348 71.65168762 -0.28633118 C73.63482177 -0.29093364 75.61794759 -0.30147606 77.60102844 -0.31672668 C80.60745803 -0.33868863 83.61337524 -0.34171794 86.61987305 -0.34057617 C87.94193142 -0.35676766 87.94193142 -0.35676766 89.29069805 -0.37328625 C94.01198431 -0.34928654 97.19350329 -0.1109566 101 3 C103.60275058 6.90412587 103.26574549 10.16805176 103.22705078 14.6940918 C103.22729185 15.5964623 103.22753292 16.4988328 103.2277813 17.42854786 C103.22628741 20.3522048 103.21105114 23.27560737 103.1953125 26.19921875 C103.1923723 28.00313189 103.19033172 29.80704673 103.18920898 31.61096191 C103.17871897 38.30316728 103.1507966 44.99533613 103.125 51.6875 C103.063125 74.1171875 103.063125 74.1171875 103 97 C69.01 97 35.02 97 0 97 C0 64.99 0 32.98 0 0 Z " fill="#8380E1" transform="translate(389,31)"/>
<path d="M0 0 C0.90136185 -0.0127597 1.80272369 -0.02551941 2.73139954 -0.03866577 C3.7032872 -0.04089142 4.67517487 -0.04311707 5.67651367 -0.04541016 C6.67905685 -0.05206696 7.68160004 -0.05872375 8.71452332 -0.06558228 C10.83700729 -0.07571169 12.95952313 -0.08039921 15.08203125 -0.08007812 C18.3217458 -0.08444203 21.56008793 -0.12073365 24.79956055 -0.15869141 C26.86270694 -0.16456141 28.92585979 -0.16852957 30.98901367 -0.17041016 C32.43773613 -0.19196671 32.43773613 -0.19196671 33.91572571 -0.21395874 C39.59601517 -0.17558413 43.12788538 0.32374436 47.53198242 4.29052734 C49.29430445 7.17816502 49.78619349 9.34178671 49.80664062 12.7043457 C49.82093864 14.00105446 49.82093864 14.00105446 49.83552551 15.32395935 C49.83461411 16.25007523 49.8337027 17.1761911 49.83276367 18.13037109 C49.8370488 19.08947891 49.84133392 20.04858673 49.8457489 21.03675842 C49.85148676 23.06331595 49.85199647 25.08989407 49.84765625 27.11645508 C49.8444975 30.21324887 49.86795822 33.30908608 49.89331055 36.40576172 C49.89558374 38.37646364 49.89628694 40.34716813 49.89526367 42.31787109 C49.90447342 43.24196274 49.91368317 44.16605438 49.923172 45.1181488 C49.88828354 49.97785416 49.78222427 53.40631606 46.53198242 57.29052734 C43.57274799 59.90751244 41.7036013 60.6732884 37.7668457 60.7421875 C36.82551788 60.76455475 35.88419006 60.786922 34.91433716 60.80996704 C33.39862625 60.81968033 33.39862625 60.81968033 31.85229492 60.82958984 C30.8067746 60.84194672 29.76125427 60.85430359 28.68405151 60.86703491 C26.47342524 60.88659469 24.26271193 60.89783211 22.05200195 60.90136719 C18.67535681 60.91545071 15.30241434 60.98278717 11.92651367 61.05224609 C9.77679052 61.06464515 7.6270462 61.07386445 5.47729492 61.07958984 C3.96765671 61.1196666 3.96765671 61.1196666 2.42752075 61.16055298 C-2.35822525 61.1143215 -5.62532512 60.87297478 -9.10668945 57.38598633 C-12.3172585 52.84117632 -12.30174225 48.38106504 -12.19458008 42.97412109 C-12.19557709 41.99943375 -12.1965741 41.0247464 -12.19760132 40.02052307 C-12.19293898 37.96892095 -12.17359439 35.91730535 -12.14038086 33.8659668 C-12.09310254 30.73365629 -12.0992804 27.60474589 -12.11254883 24.47216797 C-12.10139623 22.47279881 -12.08717704 20.47344392 -12.06958008 18.47412109 C-12.07140289 17.54272812 -12.07322571 16.61133514 -12.07510376 15.65171814 C-11.95365797 10.05921314 -11.26489056 6.68543153 -7.46801758 2.29052734 C-4.33313495 0.20060559 -3.57568503 0.03440016 0 0 Z " fill="#040707" transform="translate(298.468017578125,284.70947265625)"/>
<path d="M0 0 C0.90136185 -0.0127597 1.80272369 -0.02551941 2.73139954 -0.03866577 C3.7032872 -0.04089142 4.67517487 -0.04311707 5.67651367 -0.04541016 C6.67905685 -0.05206696 7.68160004 -0.05872375 8.71452332 -0.06558228 C10.83700729 -0.07571169 12.95952313 -0.08039921 15.08203125 -0.08007812 C18.3217458 -0.08444203 21.56008793 -0.12073365 24.79956055 -0.15869141 C26.86270694 -0.16456141 28.92585979 -0.16852957 30.98901367 -0.17041016 C32.43773613 -0.19196671 32.43773613 -0.19196671 33.91572571 -0.21395874 C39.59601517 -0.17558413 43.12788538 0.32374436 47.53198242 4.29052734 C49.29430445 7.17816502 49.78619349 9.34178671 49.80664062 12.7043457 C49.82093864 14.00105446 49.82093864 14.00105446 49.83552551 15.32395935 C49.83461411 16.25007523 49.8337027 17.1761911 49.83276367 18.13037109 C49.8370488 19.08947891 49.84133392 20.04858673 49.8457489 21.03675842 C49.85148676 23.06331595 49.85199647 25.08989407 49.84765625 27.11645508 C49.8444975 30.21324887 49.86795822 33.30908608 49.89331055 36.40576172 C49.89558374 38.37646364 49.89628694 40.34716813 49.89526367 42.31787109 C49.90447342 43.24196274 49.91368317 44.16605438 49.923172 45.1181488 C49.88828354 49.97785416 49.78222427 53.40631606 46.53198242 57.29052734 C43.57274799 59.90751244 41.7036013 60.6732884 37.7668457 60.7421875 C36.82551788 60.76455475 35.88419006 60.786922 34.91433716 60.80996704 C33.39862625 60.81968033 33.39862625 60.81968033 31.85229492 60.82958984 C30.8067746 60.84194672 29.76125427 60.85430359 28.68405151 60.86703491 C26.47342524 60.88659469 24.26271193 60.89783211 22.05200195 60.90136719 C18.67535681 60.91545071 15.30241434 60.98278717 11.92651367 61.05224609 C9.77679052 61.06464515 7.6270462 61.07386445 5.47729492 61.07958984 C3.96765671 61.1196666 3.96765671 61.1196666 2.42752075 61.16055298 C-2.35822525 61.1143215 -5.62532512 60.87297478 -9.10668945 57.38598633 C-12.3172585 52.84117632 -12.30174225 48.38106504 -12.19458008 42.97412109 C-12.19557709 41.99943375 -12.1965741 41.0247464 -12.19760132 40.02052307 C-12.19293898 37.96892095 -12.17359439 35.91730535 -12.14038086 33.8659668 C-12.09310254 30.73365629 -12.0992804 27.60474589 -12.11254883 24.47216797 C-12.10139623 22.47279881 -12.08717704 20.47344392 -12.06958008 18.47412109 C-12.07140289 17.54272812 -12.07322571 16.61133514 -12.07510376 15.65171814 C-11.95365797 10.05921314 -11.26489056 6.68543153 -7.46801758 2.29052734 C-4.33313495 0.20060559 -3.57568503 0.03440016 0 0 Z " fill="#060605" transform="translate(175.468017578125,284.70947265625)"/>
<path d="M0 0 C0.90458954 -0.00953201 1.80917908 -0.01906403 2.74118042 -0.02888489 C3.71620514 -0.02797348 4.69122986 -0.02706207 5.69580078 -0.02612305 C6.70071564 -0.03040817 7.70563049 -0.0346933 8.74099731 -0.03910828 C10.86768846 -0.0448533 12.99439926 -0.04535058 15.12109375 -0.04101562 C18.37159896 -0.03786074 21.62118972 -0.06129548 24.87158203 -0.08666992 C26.93798713 -0.08894343 29.00439468 -0.08964617 31.07080078 -0.08862305 C32.04177704 -0.09783279 33.0127533 -0.10704254 34.01315308 -0.11653137 C42.72870568 -0.05693349 42.72870568 -0.05693349 46.51611328 3.2746582 C50.37383276 7.74429545 49.96765445 12.56580242 49.94970703 18.17700195 C49.95494888 19.13232315 49.96019073 20.08764435 49.96559143 21.07191467 C49.97200251 23.08829783 49.97068648 25.10471843 49.9621582 27.12109375 C49.95365144 30.19835332 49.98241743 33.27375389 50.01416016 36.35083008 C50.01577246 38.31372015 50.01519409 40.27661349 50.01220703 42.23950195 C50.029058 43.61319191 50.029058 43.61319191 50.04624939 45.01463318 C49.98574914 50.58887244 49.30023964 53.8916177 45.51611328 58.2746582 C42.35536868 60.38182127 41.55825293 60.53126943 37.94042969 60.56518555 C37.0158194 60.57794525 36.09120911 60.59070496 35.13858032 60.60385132 C33.64323257 60.60718979 33.64323257 60.60718979 32.11767578 60.6105957 C31.09056488 60.6172525 30.06345398 60.6239093 29.00521851 60.63076782 C26.83145947 60.64089694 24.65766933 60.64558476 22.48388672 60.64526367 C19.16077284 60.64963236 15.8389917 60.6859378 12.51611328 60.72387695 C10.40413866 60.72974594 8.29215772 60.73371478 6.18017578 60.7355957 C4.69090073 60.75715225 4.69090073 60.75715225 3.17153931 60.77914429 C-1.12983001 60.75071263 -3.75795823 60.69921391 -7.52539062 58.49584961 C-10.53456339 55.08305308 -11.72844014 52.4277633 -11.77441406 47.87670898 C-11.78717377 47.01546417 -11.79993347 46.15421936 -11.81307983 45.26687622 C-11.81530548 44.3438974 -11.81753113 43.42091858 -11.81982422 42.4699707 C-11.82648102 41.51323456 -11.83313782 40.55649841 -11.83999634 39.57077026 C-11.85011314 37.54842041 -11.85481366 35.52603724 -11.85449219 33.50366211 C-11.85886125 30.41765003 -11.89517994 27.33307319 -11.93310547 24.24731445 C-11.93897473 22.27987141 -11.94294339 20.3124216 -11.94482422 18.3449707 C-11.95919525 17.42604034 -11.97356628 16.50710999 -11.9883728 15.56033325 C-11.94872877 9.97091394 -11.28420056 6.66809951 -7.48388672 2.2746582 C-4.33971924 0.17854655 -3.5872518 0.02077822 0 0 Z " fill="#040404" transform="translate(175.48388671875,178.725341796875)"/>
<path d="M0 0 C0.90458954 -0.00953201 1.80917908 -0.01906403 2.74118042 -0.02888489 C3.71620514 -0.02797348 4.69122986 -0.02706207 5.69580078 -0.02612305 C6.70071564 -0.03040817 7.70563049 -0.0346933 8.74099731 -0.03910828 C10.86768846 -0.0448533 12.99439926 -0.04535058 15.12109375 -0.04101562 C18.37159896 -0.03786074 21.62118972 -0.06129548 24.87158203 -0.08666992 C26.93798713 -0.08894343 29.00439468 -0.08964617 31.07080078 -0.08862305 C32.04177704 -0.09783279 33.0127533 -0.10704254 34.01315308 -0.11653137 C42.72870568 -0.05693349 42.72870568 -0.05693349 46.51611328 3.2746582 C50.37383276 7.74429545 49.96765445 12.56580242 49.94970703 18.17700195 C49.95494888 19.13232315 49.96019073 20.08764435 49.96559143 21.07191467 C49.97200251 23.08829783 49.97068648 25.10471843 49.9621582 27.12109375 C49.95365144 30.19835332 49.98241743 33.27375389 50.01416016 36.35083008 C50.01577246 38.31372015 50.01519409 40.27661349 50.01220703 42.23950195 C50.029058 43.61319191 50.029058 43.61319191 50.04624939 45.01463318 C49.98599129 50.56656192 49.35442318 53.95407854 45.51611328 58.2746582 C42.57581504 60.08194924 40.34712874 60.53223517 36.91870117 60.56518555 C36.01418716 60.57794525 35.10967316 60.59070496 34.17774963 60.60385132 C33.2078862 60.60607697 32.23802277 60.60830261 31.23876953 60.6105957 C30.23526962 60.6172525 29.23176971 60.6239093 28.19786072 60.63076782 C26.0771569 60.6408855 23.95642129 60.64558512 21.83569336 60.64526367 C18.59386722 60.64963762 15.3534018 60.68596943 12.11181641 60.72387695 C10.0499721 60.72974513 7.98812133 60.73371452 5.92626953 60.7355957 C4.95843033 60.74996674 3.99059113 60.76433777 2.99342346 60.77914429 C-1.25130431 60.75036839 -3.79435994 60.68003964 -7.50952148 58.49584961 C-10.53759749 55.0892173 -11.72837325 52.4343842 -11.77441406 47.87670898 C-11.78717377 47.01546417 -11.79993347 46.15421936 -11.81307983 45.26687622 C-11.81530548 44.3438974 -11.81753113 43.42091858 -11.81982422 42.4699707 C-11.82648102 41.51323456 -11.83313782 40.55649841 -11.83999634 39.57077026 C-11.85011314 37.54842041 -11.85481366 35.52603724 -11.85449219 33.50366211 C-11.85886125 30.41765003 -11.89517994 27.33307319 -11.93310547 24.24731445 C-11.93897473 22.27987141 -11.94294339 20.3124216 -11.94482422 18.3449707 C-11.95919525 17.42604034 -11.97356628 16.50710999 -11.9883728 15.56033325 C-11.94872877 9.97091394 -11.28420056 6.66809951 -7.48388672 2.2746582 C-4.33971924 0.17854655 -3.5872518 0.02077822 0 0 Z " fill="#030505" transform="translate(298.48388671875,178.725341796875)"/>
<path d="M0 0 C0.88141663 -0.01283524 1.76283325 -0.02567047 2.67095947 -0.03889465 C3.62613464 -0.04628159 4.58130981 -0.05366852 5.56542969 -0.0612793 C6.54719177 -0.06935104 7.52895386 -0.07742279 8.54046631 -0.08573914 C10.62184887 -0.09958597 12.70325419 -0.11030543 14.78466797 -0.11816406 C17.96072767 -0.1353542 21.13574042 -0.17923261 24.31152344 -0.22338867 C26.3336512 -0.23351754 28.35578781 -0.24203304 30.37792969 -0.2487793 C31.32500793 -0.26628738 32.27208618 -0.28379547 33.24786377 -0.30183411 C38.91506046 -0.28328903 42.29190445 0.29976136 46.73730469 4.17700195 C48.83341634 7.32116943 48.99118467 8.07363687 49.01196289 11.66088867 C49.02626091 13.01777298 49.02626091 13.01777298 49.04084778 14.40206909 C49.03993637 15.37709381 49.03902496 16.35211853 49.03808594 17.35668945 C49.04237106 18.36160431 49.04665619 19.36651917 49.05107117 20.40188599 C49.05681619 22.52857713 49.05731347 24.65528793 49.05297852 26.78198242 C49.04982363 30.03248763 49.07325837 33.28207839 49.09863281 36.5324707 C49.10090632 38.59887581 49.10160906 40.66528335 49.10058594 42.73168945 C49.10979568 43.70266571 49.11900543 44.67364197 49.12849426 45.67404175 C49.06999458 54.2289936 49.06999458 54.2289936 45.73730469 58.17700195 C42.54350369 60.30620262 41.65555923 60.44009683 37.97802734 60.49926758 C37.01337555 60.51848267 36.04872375 60.53769775 35.05484009 60.55749512 C33.493871 60.57024475 33.493871 60.57024475 31.90136719 60.58325195 C30.2941127 60.60035217 30.2941127 60.60035217 28.65438843 60.61779785 C26.38649445 60.63669645 24.11854557 60.64976529 21.85058594 60.6574707 C18.38216359 60.67689076 14.91610829 60.73893192 11.44824219 60.80200195 C9.24513127 60.8150617 7.0420034 60.82556277 4.83886719 60.83325195 C3.80226959 60.85794556 2.765672 60.88263916 1.69766235 60.90808105 C-3.09718789 60.87844054 -5.49867324 60.74877591 -9.41503906 57.81787109 C-12.30435076 53.39229401 -11.97832086 48.37818003 -11.92675781 43.2668457 C-11.93154144 42.2217836 -11.93632507 41.1767215 -11.94125366 40.09999084 C-11.94464728 37.89704884 -11.93548272 35.69405611 -11.91455078 33.49121094 C-11.88775225 30.12166092 -11.91433253 26.7554339 -11.94628906 23.38598633 C-11.9429854 21.24209878 -11.93658007 19.0982133 -11.92675781 16.9543457 C-11.93687897 15.94903305 -11.94700012 14.9437204 -11.95742798 13.90794373 C-11.87779739 9.15231856 -11.83726843 6.91672566 -8.84619141 3.06591797 C-5.56644329 0.66793921 -3.98174902 0.05045448 0 0 Z " fill="#020202" transform="translate(53.2626953125,284.822998046875)"/>
<path d="M0 0 C0.92468582 -0.01606293 1.84937164 -0.03212585 2.80207825 -0.04867554 C7.03292127 -0.09310935 11.26360715 -0.13418958 15.49462891 -0.15722656 C17.72650579 -0.17378905 19.95832957 -0.20108271 22.18994141 -0.23925781 C25.40644877 -0.29400485 28.6217126 -0.31589761 31.83862305 -0.33056641 C32.83461014 -0.35323578 33.83059723 -0.37590515 34.85676575 -0.39926147 C41.81997178 -0.37801697 41.81997178 -0.37801697 45.64404297 2.66308594 C46.58147339 3.91532959 46.58147339 3.91532959 47.5378418 5.19287109 C48.0328418 5.68787109 48.0328418 5.68787109 48.5378418 6.19287109 C48.64642256 7.63934048 48.6868619 9.09101546 48.69897461 10.54150391 C48.70858215 11.46626526 48.7181897 12.39102661 48.72808838 13.34381104 C48.73233826 14.3510321 48.73658813 15.35825317 48.7409668 16.39599609 C48.74666687 17.42593689 48.75236694 18.45587769 48.75823975 19.51702881 C48.76770782 21.70274828 48.77423086 23.88848215 48.77807617 26.07421875 C48.78776044 29.41480602 48.81875836 32.75477271 48.8503418 36.09521484 C48.85687365 38.21630493 48.86212341 40.33739943 48.8659668 42.45849609 C48.8783136 43.45762024 48.8906604 44.45674438 48.90338135 45.48614502 C48.87477033 54.42257522 48.87477033 54.42257522 45.5378418 58.19287109 C42.56368693 60.00025732 40.30689973 60.45389657 36.84863281 60.49926758 C35.92409805 60.51525497 34.99956329 60.53124237 34.04701233 60.54771423 C32.55940651 60.55575829 32.55940651 60.55575829 31.04174805 60.56396484 C30.01605209 60.57299332 28.99035614 60.58202179 27.93357849 60.59132385 C25.76580727 60.60582148 23.59799233 60.61471187 21.43017578 60.6184082 C18.11570603 60.6303159 14.80309124 60.67951728 11.48901367 60.72998047 C9.38160088 60.73944359 7.27417666 60.74667916 5.16674805 60.75146484 C4.17703506 60.77099716 3.18732208 60.79052948 2.1676178 60.81065369 C-2.56401147 60.77965448 -4.72906115 60.76244221 -8.56396484 57.78295898 C-10.99183979 54.47011972 -11.58985235 52.8656709 -11.6550293 48.83837891 C-11.67109222 47.93694153 -11.68715515 47.03550415 -11.70370483 46.10675049 C-11.74818437 41.9772618 -11.78923026 37.84793407 -11.81225586 33.71826172 C-11.8288038 31.54172057 -11.85607831 29.36523351 -11.89428711 27.18896484 C-11.94912537 24.04935538 -11.97094205 20.91102036 -11.9855957 17.77099609 C-12.00826508 16.80204407 -12.03093445 15.83309204 -12.05429077 14.83477783 C-12.04024178 10.32907353 -11.95552425 7.18379478 -9.05444336 3.59423828 C-5.76211571 0.5443857 -4.34655136 0.06855107 0 0 Z " fill="#000101" transform="translate(421.462158203125,178.80712890625)"/>
<path d="M0 0 C1.38218719 -0.02409439 1.38218719 -0.02409439 2.79229736 -0.04867554 C7.01337971 -0.09314606 11.23430448 -0.13420037 15.45556641 -0.15722656 C17.68060778 -0.17377565 19.90559622 -0.20105164 22.13037109 -0.23925781 C25.33947312 -0.29408573 28.54732829 -0.31591126 31.75683594 -0.33056641 C32.74766174 -0.35323578 33.73848755 -0.37590515 34.75933838 -0.39926147 C39.31079817 -0.385374 42.53666908 -0.33221799 46.16601562 2.60058594 C49.14854526 5.83867383 49.67756137 7.21302364 49.71484375 11.47143555 C49.72445129 12.35607986 49.73405884 13.24072418 49.74395752 14.1521759 C49.7482074 15.11048813 49.75245728 16.06880035 49.75683594 17.05615234 C49.76253601 18.0402861 49.76823608 19.02441986 49.77410889 20.03837585 C49.78356644 22.12396161 49.79009586 24.20956237 49.79394531 26.29516602 C49.80363995 29.48203735 49.83465194 32.66826089 49.86621094 35.85498047 C49.87274202 37.88036726 49.87799208 39.90575867 49.88183594 41.93115234 C49.89418274 42.88339188 49.90652954 43.83563141 49.91925049 44.81672668 C49.90273098 49.73829177 49.86988968 53.26953766 46.55371094 57.19287109 C43.60924465 59.79278613 41.78179535 60.57082589 37.86450195 60.59692383 C36.93996719 60.609608 36.01543243 60.62229218 35.06288147 60.63536072 C34.07114426 60.63242508 33.07940704 60.62948944 32.05761719 60.62646484 C30.51907326 60.63432762 30.51907326 60.63432762 28.94944763 60.64234924 C26.78165593 60.64876865 24.61382939 60.64743352 22.44604492 60.63891602 C19.13169203 60.63041082 15.81906524 60.65916208 12.50488281 60.69091797 C10.39746145 60.69253021 8.29003705 60.69195201 6.18261719 60.68896484 C5.19290421 60.70019882 4.20319122 60.7114328 3.18348694 60.7230072 C-1.21098489 60.67856945 -3.73934866 60.62727359 -7.5480957 58.28686523 C-10.28634763 55.26615954 -10.57627061 53.61862225 -10.62329102 49.63891602 C-10.63612625 48.69420944 -10.64896149 47.74950287 -10.66218567 46.77616882 C-10.6695726 45.75223526 -10.67695953 44.7283017 -10.68457031 43.67333984 C-10.69264206 42.62261795 -10.70071381 41.57189606 -10.70903015 40.48933411 C-10.72287721 38.26251886 -10.73359657 36.03568233 -10.74145508 33.80883789 C-10.75866688 30.40453834 -10.80254819 27.00120999 -10.84667969 23.59716797 C-10.85680651 21.43506574 -10.86532265 19.27295525 -10.87207031 17.11083984 C-10.8895784 16.09297897 -10.90708649 15.0751181 -10.92512512 14.02641296 C-10.90340611 6.94283884 -10.90340611 6.94283884 -8.54467773 3.07299805 C-5.55412077 0.39350076 -3.91943974 0.06204443 0 0 Z " fill="#010101" transform="translate(52.4462890625,178.80712890625)"/>
<path d="M0 0 C1.32212494 -0.01441132 1.32212494 -0.01441132 2.67095947 -0.02911377 C3.62613464 -0.03336365 4.58130981 -0.03761353 5.56542969 -0.04199219 C7.03807281 -0.0505423 7.03807281 -0.0505423 8.54046631 -0.05926514 C10.62185587 -0.06872356 12.70326047 -0.07525245 14.78466797 -0.07910156 C17.96055498 -0.08878562 21.135789 -0.11979238 24.31152344 -0.15136719 C26.33365501 -0.15789937 28.35579122 -0.163149 30.37792969 -0.16699219 C31.32500793 -0.17933899 32.27208618 -0.19168579 33.24786377 -0.20440674 C38.48306428 -0.18683301 42.25170942 0.14303619 46.73730469 3.16113281 C48.84806904 6.32727934 48.99143527 7.11368064 49.01196289 10.73681641 C49.02626091 12.12373184 49.02626091 12.12373184 49.04084778 13.53866577 C49.03993637 14.53556427 49.03902496 15.53246277 49.03808594 16.55957031 C49.04237106 17.58668121 49.04665619 18.61379211 49.05107117 19.67202759 C49.05681653 21.84579735 49.05731322 24.01958634 49.05297852 26.19335938 C49.04982353 29.51628547 49.0732584 32.83831715 49.09863281 36.16113281 C49.1009063 38.27311086 49.10160907 40.38509129 49.10058594 42.49707031 C49.10979568 43.48992035 49.11900543 44.48277039 49.12849426 45.50570679 C49.07004986 54.24042864 49.07004986 54.24042864 45.73730469 58.16113281 C42.56002183 60.27932139 41.71773089 60.42082134 38.06982422 60.4675293 C36.65287766 60.49151039 36.65287766 60.49151039 35.20730591 60.51597595 C33.67914749 60.52402 33.67914749 60.52402 32.12011719 60.53222656 C31.07081024 60.54125504 30.0215033 60.55028351 28.94039917 60.55958557 C26.71957253 60.57409923 24.49870303 60.58297757 22.27783203 60.58666992 C18.88207845 60.59856355 15.48814325 60.64773785 12.09277344 60.69824219 C9.93523023 60.70770659 7.77767585 60.71494154 5.62011719 60.71972656 C4.60539337 60.73925888 3.59066956 60.7587912 2.54519653 60.77891541 C-4.5219105 60.73374729 -4.5219105 60.73374729 -8.38037109 57.7512207 C-10.7891049 54.43679049 -11.39052021 52.82585375 -11.45556641 48.80664062 C-11.47162933 47.90520325 -11.48769226 47.00376587 -11.50424194 46.07501221 C-11.54872148 41.94552352 -11.58976737 37.81619578 -11.61279297 33.68652344 C-11.62934091 31.50998229 -11.65661542 29.33349522 -11.69482422 27.15722656 C-11.74966248 24.0176171 -11.77147916 20.87928208 -11.78613281 17.73925781 C-11.80880219 16.77030579 -11.83147156 15.80135376 -11.85482788 14.80303955 C-11.84077889 10.29733525 -11.75606136 7.15205649 -8.85498047 3.5625 C-5.62427113 0.56972762 -4.25785908 0.03742227 0 0 Z " fill="#010102" transform="translate(421.2626953125,284.8388671875)"/>
<path d="M0 0 C0.88141663 -0.01283524 1.76283325 -0.02567047 2.67095947 -0.03889465 C3.62613464 -0.04628159 4.58130981 -0.05366852 5.56542969 -0.0612793 C6.54719177 -0.06935104 7.52895386 -0.07742279 8.54046631 -0.08573914 C10.62184887 -0.09958597 12.70325419 -0.11030543 14.78466797 -0.11816406 C17.96072767 -0.1353542 21.13574042 -0.17923261 24.31152344 -0.22338867 C26.3336512 -0.23351754 28.35578781 -0.24203304 30.37792969 -0.2487793 C31.32500793 -0.26628738 32.27208618 -0.28379547 33.24786377 -0.30183411 C39.05243806 -0.28283948 42.30708799 0.32765778 46.73730469 4.17700195 C47.87354588 6.44948433 48.00177312 7.96002959 48.11230469 10.48950195 C48.16128906 11.24875977 48.21027344 12.00801758 48.26074219 12.7902832 C47.42808087 16.58697028 45.82659086 17.83578655 42.73730469 20.17700195 C39.06312866 20.92678482 35.44568503 20.87779988 31.70605469 20.84106445 C30.63738159 20.84584808 29.5687085 20.85063171 28.46765137 20.8555603 C26.21165492 20.85895776 23.95560914 20.84976625 21.69970703 20.82885742 C18.24888204 20.80209175 14.80130989 20.82861266 11.35058594 20.8605957 C9.15656835 20.85729158 6.96255278 20.8508853 4.76855469 20.84106445 C3.7382312 20.85118561 2.70790771 20.86130676 1.6463623 20.87173462 C-5.50437801 20.75488514 -5.50437801 20.75488514 -9.41064453 17.77807617 C-11.85692397 14.34244986 -11.98082573 12.42319733 -11.76269531 8.33325195 C-10.96270278 4.88328417 -9.00676536 3.26772199 -6.26269531 1.17700195 C-3.94979096 0.02054977 -2.57525427 0.03263217 0 0 Z " fill="#040505" transform="translate(299.2626953125,390.822998046875)"/>
<path d="M0 0 C0.88141663 -0.01283524 1.76283325 -0.02567047 2.67095947 -0.03889465 C3.62613464 -0.04628159 4.58130981 -0.05366852 5.56542969 -0.0612793 C6.54719177 -0.06935104 7.52895386 -0.07742279 8.54046631 -0.08573914 C10.62184887 -0.09958597 12.70325419 -0.11030543 14.78466797 -0.11816406 C17.96072767 -0.1353542 21.13574042 -0.17923261 24.31152344 -0.22338867 C26.3336512 -0.23351754 28.35578781 -0.24203304 30.37792969 -0.2487793 C31.32500793 -0.26628738 32.27208618 -0.28379547 33.24786377 -0.30183411 C39.05243806 -0.28283948 42.30708799 0.32765778 46.73730469 4.17700195 C47.87354588 6.44948433 48.00177312 7.96002959 48.11230469 10.48950195 C48.16128906 11.24875977 48.21027344 12.00801758 48.26074219 12.7902832 C47.42808087 16.58697028 45.82659086 17.83578655 42.73730469 20.17700195 C39.06312866 20.92678482 35.44568503 20.87779988 31.70605469 20.84106445 C30.63738159 20.84584808 29.5687085 20.85063171 28.46765137 20.8555603 C26.21165492 20.85895776 23.95560914 20.84976625 21.69970703 20.82885742 C18.24888204 20.80209175 14.80130989 20.82861266 11.35058594 20.8605957 C9.15656835 20.85729158 6.96255278 20.8508853 4.76855469 20.84106445 C3.7382312 20.85118561 2.70790771 20.86130676 1.6463623 20.87173462 C-5.50437801 20.75488514 -5.50437801 20.75488514 -9.41064453 17.77807617 C-11.85692397 14.34244986 -11.98082573 12.42319733 -11.76269531 8.33325195 C-10.96270278 4.88328417 -9.00676536 3.26772199 -6.26269531 1.17700195 C-3.94979096 0.02054977 -2.57525427 0.03263217 0 0 Z " fill="#040505" transform="translate(176.2626953125,390.822998046875)"/>
<path d="M0 0 C1.71219727 -0.0309375 1.71219727 -0.0309375 3.45898438 -0.0625 C4.56177734 -0.06765625 5.66457031 -0.0728125 6.80078125 -0.078125 C7.80923096 -0.0874707 8.81768066 -0.09681641 9.85668945 -0.10644531 C13.17771569 0.31172617 15.00773763 1.270831 17.6875 3.25 C20.35586411 7.25254616 20.5215238 10.54313299 19.6875 15.25 C17.50590855 18.00569447 15.81572506 19.68588747 12.6875 21.25 C8.61035697 21.54737713 4.52420913 21.52810009 0.4375 21.5625 C-0.69558594 21.59150391 -1.82867187 21.62050781 -2.99609375 21.65039062 C-9.37044162 21.6989642 -13.53775934 21.68721589 -18.3125 17.25 C-20.04881636 13.77736727 -19.91440402 10.03806987 -19.3125 6.25 C-13.68665157 -0.85633486 -8.47081941 0.03787957 0 0 Z " fill="#080A0A" transform="translate(184.3125,430.75)"/>
<path d="M0 0 C1.08539063 -0.020625 2.17078125 -0.04125 3.2890625 -0.0625 C13.50485327 -0.11245497 13.50485327 -0.11245497 18.25 3.25 C20.91836411 7.25254616 21.0840238 10.54313299 20.25 15.25 C18.06840855 18.00569447 16.37822506 19.68588747 13.25 21.25 C9.17285697 21.54737713 5.08670913 21.52810009 1 21.5625 C-0.13308594 21.59150391 -1.26617187 21.62050781 -2.43359375 21.65039062 C-8.80794162 21.6989642 -12.97525934 21.68721589 -17.75 17.25 C-19.48631636 13.77736727 -19.35190402 10.03806987 -18.75 6.25 C-13.2328178 -0.71907226 -8.30498583 0.03889923 0 0 Z " fill="#080A0A" transform="translate(306.75,430.75)"/>
<path d="M0 0 C6.6 0 13.2 0 20 0 C20 6.6 20 13.2 20 20 C13.4 20 6.8 20 0 20 C0 13.4 0 6.8 0 0 Z " fill="#817EDE" transform="translate(430,305)"/>
<path d="M0 0 C6.6 0 13.2 0 20 0 C20 6.6 20 13.2 20 20 C13.4 20 6.8 20 0 20 C0 13.4 0 6.8 0 0 Z " fill="#D66EA4" transform="translate(62,305)"/>
<path d="M0 0 C6.6 0 13.2 0 20 0 C20 6.6 20 13.2 20 20 C13.4 20 6.8 20 0 20 C0 13.4 0 6.8 0 0 Z " fill="#827FE0" transform="translate(430,199)"/>
<path d="M0 0 C6.6 0 13.2 0 20 0 C20 6.6 20 13.2 20 20 C13.4 20 6.8 20 0 20 C0 13.4 0 6.8 0 0 Z " fill="#D870A6" transform="translate(62,199)"/>
<path d="M0 0 C6.27 0 12.54 0 19 0 C19 6.6 19 13.2 19 20 C12.73 20 6.46 20 0 20 C0 13.4 0 6.8 0 0 Z " fill="#65DFF6" transform="translate(308,199)"/>
<path d="M0 0 C6.27 0 12.54 0 19 0 C19 6.6 19 13.2 19 20 C12.73 20 6.46 20 0 20 C0 13.4 0 6.8 0 0 Z " fill="#FECC68" transform="translate(185,199)"/>
<path d="M0 0 C6.27 0 12.54 0 19 0 C19 6.27 19 12.54 19 19 C12.73 19 6.46 19 0 19 C0 12.73 0 6.46 0 0 Z " fill="#66E0F7" transform="translate(308,306)"/>
<path d="M0 0 C6.27 0 12.54 0 19 0 C19 6.27 19 12.54 19 19 C12.73 19 6.46 19 0 19 C0 12.73 0 6.46 0 0 Z " fill="#FFCD69" transform="translate(185,306)"/>
<path d="M0 0 C2.58977309 3.98426629 2.46486633 7.89931629 1.625 12.5 C-0.375 15.625 -0.375 15.625 -3.375 17.5 C-7.44486004 18.33694703 -10.4833737 17.90704679 -14.25 16.1875 C-16.375 14.5 -16.375 14.5 -18.375 11.5 C-19.16151685 4.53370787 -19.16151685 4.53370787 -16.1875 0.625 C-10.07188126 -3.99568972 -6.57478042 -4.1524929 0 0 Z " fill="#030404" transform="translate(510.375,397.5)"/>
</svg>
